<svg width="54" height="54" viewBox="0 0 54 54" fill="none" xmlns="http://www.w3.org/2000/svg">
<path d="M28.4285 13.1095C29.1195 13.8012 29.1195 14.9246 28.4285 15.6164C27.7375 16.3082 26.6154 16.3082 25.9214 15.6164L17.7386 7.42443C17.0239 6.709 15.7748 6.709 15.0602 7.42443L7.47381 15.0222C7.11649 15.3829 6.91864 15.8559 6.91864 16.3614C6.91864 16.8699 7.11649 17.3459 7.47381 17.7066L15.6567 25.8985C16.3477 26.5874 16.3477 27.7137 15.6567 28.4026C15.3112 28.7485 14.8564 28.9229 14.4016 28.9229C13.9498 28.9229 13.495 28.7485 13.1495 28.4026L4.96964 20.2135C3.94198 19.1847 3.375 17.8159 3.375 16.3614C3.375 14.9069 3.94198 13.5411 4.96964 12.5123L12.556 4.92042C14.6083 2.85986 18.1933 2.85986 20.2457 4.92042L28.4285 13.1095Z" fill="#546174"/>
<path d="M40.8475 25.5435L49.0304 33.7355C50.058 34.7643 50.625 36.1331 50.625 37.5846C50.625 39.0391 50.058 40.4079 49.0304 41.4338L41.444 49.0286C40.4164 50.0574 39.0521 50.625 37.5992 50.625C36.1463 50.625 34.779 50.0574 33.7543 49.0286L25.5715 40.8366C24.8775 40.1478 24.8775 39.0244 25.5715 38.3326C26.2625 37.6378 27.3846 37.6378 28.0756 38.3326L36.2585 46.5216C36.9731 47.2371 38.2223 47.2371 38.9398 46.5216L46.5232 38.9268C46.8805 38.5691 47.0784 38.0931 47.0784 37.5846C47.0784 37.0791 46.8805 36.6031 46.5232 36.2425L38.3433 28.0505C37.6494 27.3616 37.6494 26.2353 38.3433 25.5435C39.0343 24.8517 40.1565 24.8517 40.8475 25.5435Z" fill="#546174"/>
<path d="M32.5955 15.8503C33.5759 15.8503 34.3673 15.055 34.3673 14.0765V7.24738C34.3673 6.26883 33.5759 5.47358 32.5955 5.47358C31.6151 5.47358 30.8237 6.26883 30.8237 7.24738V14.0765C30.8237 15.055 31.6151 15.8503 32.5955 15.8503Z" fill="#546174"/>
<path d="M45.7241 23.7723H38.8997C37.9192 23.7723 37.1278 22.9771 37.1278 21.9985C37.1278 21.02 37.9192 20.2277 38.8997 20.2277H45.7241C46.7045 20.2277 47.4959 21.02 47.4959 21.9985C47.4959 22.9771 46.7045 23.7723 45.7241 23.7723Z" fill="#546174"/>
<path d="M38.9647 17.0079C39.4165 17.0079 39.8712 16.8335 40.2167 16.4906L45.045 11.6599C45.736 10.9681 45.736 9.84474 45.045 9.15296C44.354 8.46118 43.2318 8.46118 42.5378 9.15L37.7126 13.9806C37.0186 14.6724 37.0186 15.7958 37.7126 16.4876C38.0581 16.8335 38.5099 17.0079 38.9647 17.0079Z" fill="#546174"/>
<path d="M18.935 40.2152C18.935 39.2366 19.7264 38.4414 20.7069 38.4414C21.6873 38.4414 22.4787 39.2366 22.4787 40.2152V47.0443C22.4787 48.0229 21.6873 48.8181 20.7069 48.8181C19.7264 48.8181 18.935 48.0229 18.935 47.0443V40.2152Z" fill="#546174"/>
<path d="M14.4032 30.5192H7.57869C6.59829 30.5192 5.80687 31.3145 5.80687 32.293C5.80687 33.2716 6.59829 34.0639 7.57869 34.0639H14.4032C15.3836 34.0639 16.175 33.2716 16.175 32.293C16.175 31.3145 15.3836 30.5192 14.4032 30.5192Z" fill="#546174"/>
<path d="M8.25997 42.6311L13.0852 37.8004C13.7792 37.1145 14.9013 37.1116 15.5923 37.8034C16.2834 38.4952 16.2834 39.6186 15.5923 40.3133L10.7641 45.141C10.4186 45.4869 9.96387 45.6583 9.51205 45.6583C9.05729 45.6583 8.60547 45.4869 8.25997 45.138C7.56601 44.4463 7.56601 43.3228 8.25997 42.6311Z" fill="#546174"/>
</svg>
