<svg width="22" height="22" viewBox="0 0 22 22" fill="none" xmlns="http://www.w3.org/2000/svg">
<path d="M9.625 1.65977L11.9896 3.72227H11C6.44365 3.72227 2.75 7.41592 2.75 11.9723C2.75 16.5286 6.44365 20.2223 11 20.2223C15.5563 20.2223 19.25 16.5286 19.25 11.9723C19.25 10.0788 18.6121 8.33425 17.5395 6.94191L16.4496 7.7803C17.3434 8.94059 17.875 10.3943 17.875 11.9723C17.875 15.7692 14.797 18.8473 11 18.8473C7.20304 18.8473 4.125 15.7692 4.125 11.9723C4.125 8.17531 7.20304 5.09727 11 5.09727H12.1472L9.625 7.84727L10.5973 8.81955L14.0268 5.15329C14.4089 4.74483 14.3817 4.10242 13.9665 3.72773L10.5973 0.6875L9.625 1.65977Z" fill="#546174"/>
</svg>
